<svg class="layer" width="400" height="400" viewBox="0 0 400 400" fill="none" xmlns="http://www.w3.org/2000/svg">
<g id="ca">
<path id="letter_a" d="M164.448 134.148C163.545 132.6 163.54 130.687 164.434 129.134L194.149 77.5302C196.073 74.1891 200.894 74.1905 202.816 77.5328L343.68 322.508C345.597 325.841 343.191 330 339.346 330H281.538C279.759 330 278.115 329.055 277.219 327.519L164.448 134.148Z" fill="url(#paint0_linear)"/>
<path id="letter_c" fill-rule="evenodd" clip-rule="evenodd" d="M150.159 170.3C148.188 167.055 143.462 167.104 141.559 170.389L53.6811 322.074C51.75 325.407 54.1552 329.581 58.0075 329.581H108.332H116.417H235.165C239.122 329.581 241.511 325.201 239.368 321.873L213.938 282.389C213.017 280.96 211.434 280.097 209.734 280.097H146.751L178.766 222.247C179.635 220.678 179.596 218.764 178.665 217.231L150.159 170.3Z" fill="#FAFAFA"/>
</g>
<defs>
<linearGradient id="paint0_linear" x1="202.243" y1="83.4194" x2="279.67" y2="329.816" gradientUnits="userSpaceOnUse">
<stop stop-color="#B3FFAB"/>
<stop offset="1" stop-color="#12FFF7"/>
</linearGradient>
</defs>
</svg>
