<svg width="600" height="600" viewBox="0 0 600 600" fill="none" xmlns="http://www.w3.org/2000/svg">
<circle cx="300" cy="300" r="268.5" fill="#E43030" stroke="#E43030" stroke-width="3"/>
<circle cx="300" cy="300" r="218.5" fill="white" stroke="white" stroke-width="3"/>
<circle cx="300" cy="300" r="168.5" fill="#E43030" stroke="#E43030" stroke-width="3"/>
<circle cx="300" cy="300" r="118.5" fill="#367DE8" stroke="#367DE8" stroke-width="3"/>
<path d="M298.589 188.335C299.065 187.013 300.935 187.013 301.411 188.335L326.817 258.789C327.443 260.524 329.063 261.702 330.907 261.761L405.764 264.152C407.168 264.196 407.745 265.974 406.636 266.836L347.481 312.77C346.024 313.901 345.405 315.806 345.918 317.577L366.777 389.51C367.168 390.859 365.656 391.957 364.493 391.168L302.527 349.103C301.002 348.067 298.998 348.067 297.473 349.103L235.507 391.168C234.344 391.957 232.832 390.859 233.223 389.51L254.082 317.577C254.595 315.806 253.976 313.901 252.519 312.77L193.364 266.836C192.255 265.974 192.832 264.196 194.236 264.152L269.093 261.761C270.937 261.702 272.557 260.524 273.183 258.789L298.589 188.335Z" fill="white" stroke="white" stroke-width="3"/>
</svg>
