<svg width="1080" height="1080" viewBox="0 0 1080 1080" fill="none" xmlns="http://www.w3.org/2000/svg">
<rect width="1080" height="1080" fill="#5FE36A"/>
<path d="M665.464 675.444C666.68 676.134 667.432 677.425 667.432 678.823V747.76C667.432 750.738 664.219 752.609 661.629 751.139L415.399 611.419C414.183 610.729 413.432 609.438 413.432 608.04V539.103C413.432 536.125 416.644 534.255 419.234 535.724L665.464 675.444Z" fill="#9DFCA1"/>
<path fill-rule="evenodd" clip-rule="evenodd" d="M667.195 469.358C667.195 467.962 666.447 466.674 665.235 465.983L419.915 326.084C417.325 324.607 414.105 326.478 414.105 329.459V398.493C414.105 399.889 414.854 401.177 416.066 401.868L604.561 509.361L523.52 570.235C521.278 571.92 521.504 575.353 523.949 576.728L582.178 609.482C583.541 610.248 585.231 610.123 586.467 609.164L665.694 547.615C666.641 546.879 667.195 545.747 667.195 544.547V538.392V470.091V469.358Z" fill="#FAFAFA"/>
</svg>
