<svg width="300" height="300" viewBox="0 0 300 300" fill="none" xmlns="http://www.w3.org/2000/svg">
<path d="M87.3333 46L56 87.7778V234C56 239.54 58.2008 244.853 62.1182 248.771C66.0356 252.688 71.3488 254.889 76.8889 254.889H223.111C228.651 254.889 233.964 252.688 237.882 248.771C241.799 244.853 244 239.54 244 234V87.7778L212.667 46H87.3333Z" stroke="#D6D6D6" stroke-width="10.4444" stroke-linecap="round" stroke-linejoin="round"/>
<path d="M56 87.7777H244" stroke="#D6D6D6" stroke-width="10.4444" stroke-linecap="round" stroke-linejoin="round"/>
<path d="M191.778 129.556C191.778 140.636 187.376 151.262 179.541 159.097C171.706 166.932 161.08 171.333 150 171.333C138.92 171.333 128.293 166.932 120.459 159.097C112.624 151.262 108.222 140.636 108.222 129.556" stroke="#D6D6D6" stroke-width="10.4444" stroke-linecap="round" stroke-linejoin="round"/>
</svg>
