<svg width="300" height="300" viewBox="0 0 300 300" fill="none" xmlns="http://www.w3.org/2000/svg">
<path d="M47.1204 160.981C44.9915 124.113 71.2968 86.4812 109.979 86.4812C118.886 86.4812 122.926 88.5504 132.628 91.5665C137.822 93.1813 146.625 97.6689 151.714 97.6689C156.804 97.6689 162.912 94.3634 171.151 91.3444C182.838 87.0616 189.751 86.6035 196.504 86.4812C219.153 86.4812 235.782 95.9417 246.383 110.636C228.884 122.014 219.662 135.809 219.153 158.184C219.153 178.525 232.132 198.358 253 207.258C247.91 228.616 220.426 272.604 197.776 272.604C189.999 272.16 185.219 270.946 176.145 267.519C169.384 264.557 160.367 262.433 154.514 262.433C148.406 262.179 141.561 264.157 133.01 267.519C125.757 270.37 121.435 271.988 111.505 272.604C92.6736 273.772 50.8937 226.327 47.1204 160.981Z" fill="#D6D6D6"/>
<path d="M163.93 46.8157C153.425 58.1189 149.424 73.0051 150.187 86.4812C167.492 85.2099 179.453 78.0904 190.396 64.8686C201.339 51.6467 201.42 42.0391 201.339 28C188.603 30.0708 173.855 36.1365 163.93 46.8157Z" fill="#D6D6D6"/>
</svg>
