<svg width="400" height="400" viewBox="0 0 400 400" fill="none" xmlns="http://www.w3.org/2000/svg">
<path class="ny_stroke" d="M316.49 102.5H372.092C373.154 102.5 373.821 103.647 373.296 104.57L258.258 306.8C258.011 307.233 257.552 307.5 257.054 307.5H201.452C200.389 307.5 199.722 306.353 200.248 305.43L315.286 103.2C315.532 102.767 315.992 102.5 316.49 102.5Z" stroke="#33DD33" stroke-width="3"/>
<path class="ny_stroke" d="M143.458 103.5L29.4576 302.5C27.9575 305 30.4575 305 32.4576 305H83.9576C86.7576 305 87.4575 304 88.4576 302.5L177.958 145C194.124 166.5 226.943 210.482 228.958 213C230.631 215.092 232.458 214.796 233.458 213C240.791 199.833 255.858 172.7 257.458 169.5C259.058 166.3 259.374 165.379 257.458 163C242.291 144.167 211.958 105.5 210.458 103.5C208.848 101.353 207.958 100 204.458 100H148.958C145.458 100 144.124 102.333 143.458 103.5Z" stroke="#FAFAFA" stroke-width="3"/>
</svg>
