<svg width="32" height="32" viewBox="0 0 32 32" fill="none" xmlns="http://www.w3.org/2000/svg">
<path fill-rule="evenodd" clip-rule="evenodd" d="M10.7426 4C7.01878 4 4 7.01878 4 10.7426V21.2574C4 24.9812 7.01878 28 10.7426 28H21.2574C24.9812 28 28 24.9812 28 21.2574V10.7426C28 7.01878 24.9812 4 21.2574 4H10.7426ZM10.6484 6.21618C8.20056 6.21618 6.21618 8.20056 6.21618 10.6484V21.3517C6.21618 23.7996 8.20056 25.784 10.6484 25.784H21.3046C23.7524 25.784 25.7368 23.7996 25.7368 21.3517V10.6484C25.7368 8.20056 23.7524 6.21618 21.3046 6.21618H10.6484Z" fill="#959698"/>
<path fill-rule="evenodd" clip-rule="evenodd" d="M15.9989 22.2C19.3973 22.2 22.1522 19.4451 22.1522 16.0468C22.1522 12.6485 19.3973 9.89355 15.9989 9.89355C12.6006 9.89355 9.8457 12.6485 9.8457 16.0468C9.8457 19.4451 12.6006 22.2 15.9989 22.2ZM15.9989 20.0312C18.2254 20.0312 20.0303 18.2263 20.0303 15.9998C20.0303 13.7733 18.2254 11.9684 15.9989 11.9684C13.7724 11.9684 11.9674 13.7733 11.9674 15.9998C11.9674 18.2263 13.7724 20.0312 15.9989 20.0312Z" fill="#959698"/>
<circle cx="22.4596" cy="9.58753" r="1.43811" fill="#959698"/>
</svg>
