<svg width="32" height="32" viewBox="0 0 32 32" fill="none" xmlns="http://www.w3.org/2000/svg">
<path d="M15.8958 11.9474C10.6721 11.7438 6.89677 8.54559 5.66208 6.97195C3.85754 9.93409 5.89161 12.4642 7.13421 13.3591C6.64034 13.4146 5.4563 13.0428 4.92602 12.8499C5.09697 16.1083 7.65658 17.3703 8.91501 17.594C8.23119 17.7976 7.18962 17.7868 6.75431 17.756C7.62809 20.3849 10.1734 21.0421 11.3369 21.0421C9.15246 23.0045 5.53545 23.2483 4 23.1249C8.77255 25.9019 16.1332 26.4573 21.3806 21.5049C24.806 17.745 25.5916 15.3477 25.797 10.7672C27.1457 9.82301 27.9419 8.73843 28.1714 8.31417C27.5826 8.64741 26.1215 8.91585 25.4646 9.00842C26.6803 8.37897 27.3641 7.00281 27.5541 6.39341C26.8513 6.89327 25.1718 7.37307 24.4199 7.55049C23.2077 6.42412 22.3711 6.12754 20.6921 6C17.1542 6.20828 15.3971 8.80014 15.8958 11.9474Z" fill="#959698"/>
</svg>
